<?xml version="1.0" encoding="UTF-8" standalone="no"?>
<svg
   xmlns:dc="http://purl.org/dc/elements/1.1/"
   xmlns:cc="http://creativecommons.org/ns#"
   xmlns:rdf="http://www.w3.org/1999/02/22-rdf-syntax-ns#"
   xmlns:svg="http://www.w3.org/2000/svg"
   xmlns="http://www.w3.org/2000/svg"
   xmlns:sodipodi="http://sodipodi.sourceforge.net/DTD/sodipodi-0.dtd"
   xmlns:inkscape="http://www.inkscape.org/namespaces/inkscape"
   inkscape:version="1.0 (4035a4fb49, 2020-05-01)"
   sodipodi:docname="柬埔寨.svg"
   id="svg124"
   height="480"
   width="640.00299"
   p-id="4886"
   version="1.1"
   viewBox="0 0 5120.0241 3840.0004"
   class="icon"
   t="1601339555372">
  <metadata
     id="metadata128">
    <rdf:RDF>
      <cc:Work
         rdf:about="">
        <dc:format>image/svg+xml</dc:format>
        <dc:type
           rdf:resource="http://purl.org/dc/dcmitype/StillImage" />
        <dc:title></dc:title>
      </cc:Work>
    </rdf:RDF>
  </metadata>
  <sodipodi:namedview
     inkscape:current-layer="svg124"
     inkscape:window-maximized="1"
     inkscape:window-y="-8"
     inkscape:window-x="65"
     inkscape:cy="321.8365"
     inkscape:cx="510.63408"
     inkscape:zoom="1.0061093"
     inkscape:lockguides="false"
     units="px"
     inkscape:document-units="pt"
     showgrid="false"
     id="namedview126"
     inkscape:window-height="1057"
     inkscape:window-width="1847"
     inkscape:pageshadow="2"
     inkscape:pageopacity="0"
     guidetolerance="10"
     gridtolerance="10"
     objecttolerance="10"
     borderopacity="1"
     bordercolor="#666666"
     pagecolor="#ffffff" />
  <defs
     id="defs78">
    <style
       id="style76"
       type="text/css" />
  </defs>
  <g
     transform="matrix(3.7824569,0,0,3.7824466,-457.42326,-24.304588)"
     id="g133">
    <path
       d="M 120.93284,768.1514 H 1474.5568 v 253.4902 H 120.93373 Z"
       fill="#26278a"
       p-id="4888"
       id="path82"
       style="stroke-width:0.942616" />
    <path
       d="M 120.93284,259.91589 H 1474.5568 V 768.1514 H 120.93373 Z"
       fill="#ca271f"
       p-id="4889"
       id="path84"
       style="stroke-width:0.942616" />
    <path
       d="M 120.93284,6.4256262 H 1474.5568 V 259.91589 H 120.93373 Z"
       fill="#26278a"
       p-id="4890"
       id="path86"
       style="stroke-width:0.942616" />
  </g>
  <g
     transform="matrix(3.7824641,0,0,3.7824466,-366.28354,-18.993991)"
     id="g153">
    <path
       d="m 768,283.608 6.275,-7.53 7.529,7.53 v 8.784 H 768 Z m -2.51,11.294 h 17.569 v 7.53 H 765.49 Z m -3.765,10.04 h 23.844 v 7.529 h -23.844 v -7.53 z m -2.51,10.038 h 31.373 v 8.785 h -31.372 v -8.785 z"
       fill="#ffffff"
       p-id="4891"
       id="path88" />
    <path
       d="m 751.686,321.255 6.275,5.02 h 32.627 l 6.275,-5.02 -5.02,5.02 v 8.784 h -10.04 l -6.274,-3.765 -6.274,3.765 h -10.04 v -8.784 z m -5.02,11.294 8.785,5.02 h 10.04 l -3.766,5.02 -7.529,1.254 v -6.274 z m 46.432,5.02 8.784,-5.02 v 1.255 l -6.274,3.765 v 12.549 h -6.275 l 5.02,-5.02 -3.765,-3.765 -3.764,1.255 -3.765,-5.02 z"
       fill="#ffffff"
       p-id="4892"
       id="path90" />
    <path
       d="m 762.98,347.608 11.295,-13.804 11.294,13.804 5.02,-2.51 -3.765,5.02 -12.55,-6.275 -11.294,6.275 -5.02,-5.02 z m -249.725,-7.53 1.255,-1.254 c 3.765,7.529 7.53,16.313 8.784,25.098 l -1.255,11.294 -8.784,-1.255 -8.784,2.51 v -12.55 c 1.254,-8.784 5.02,-16.313 8.784,-23.843 z M 1024,361.412 c 2.51,-7.53 5.02,-15.06 8.784,-22.588 l 2.51,5.02 c 3.765,8.783 7.53,17.568 7.53,27.607 l -1.255,3.765 -8.785,-1.255 -8.784,2.51 v -15.06 z M 752.941,345.098 h 1.255 l 5.02,5.02 h -5.02 z m -11.294,0 8.784,5.02 1.255,2.51 h 7.53 l -2.51,3.764 -6.275,-2.51 -1.255,-1.255 z m 56.47,6.275 8.785,-6.275 -7.53,7.53 v 1.254 l -7.529,2.51 -2.51,-3.765 h 8.785 z"
       fill="#ffffff"
       p-id="4893"
       id="path92" />
    <path
       d="m 757.96,360.157 15.06,-12.55 h 5.02 l 12.548,12.55 6.275,-2.51 -5.02,3.765 -2.51,1.255 h -7.53 l -7.528,-2.51 -7.53,2.51 h -8.784 l -6.275,-5.02 z m -7.529,-1.255 3.765,3.765 h -3.765 z"
       fill="#ffffff"
       p-id="4894"
       id="path94" />
    <path
       d="m 735.373,358.902 12.549,6.274 h 15.058 l -8.784,10.04 -10.04,-1.255 v -7.53 z m 65.254,6.274 13.804,-6.274 -10.039,7.53 v 7.529 l -10.04,1.255 -8.783,-10.04 z"
       fill="#ffffff"
       p-id="4895"
       id="path96" />
    <path
       d="m 794.353,362.667 5.02,-3.765 v 3.765 z m -22.588,1.255 3.764,-1.255 c 7.53,2.51 15.06,8.784 17.569,17.568 l 8.784,-3.764 -8.784,8.784 h -8.784 l -10.04,-3.765 -11.294,3.765 h -7.529 l -7.53,-8.784 8.785,3.764 c 1.255,-7.53 7.53,-13.804 15.059,-16.313 z m -47.687,11.294 v -5.02 l 12.55,7.53 5.02,2.51 V 384 h 7.528 l 6.275,3.765 h 5.02 -1.255 l -8.785,11.294 H 735.373 V 381.49 Z m 85.334,3.764 12.549,-7.529 h 3.764 l -1.254,3.765 -11.295,6.274 v 17.569 l -7.529,-1.255 -6.274,1.255 -2.51,-2.51 -8.785,-8.784 h 6.275 L 798.118,384 h 8.784 v -3.765 z m -301.177,-2.51 7.53,-1.254 c 7.53,1.255 15.059,3.764 18.823,11.294 l 8.785,-1.255 -8.785,3.765 h -8.784 l -12.55,-11.295 -11.293,11.295 h -8.785 l -8.784,-3.765 7.53,1.255 z m 503.216,10.04 c 3.765,-6.275 11.294,-8.785 18.824,-10.04 l 8.784,1.255 15.059,10.04 7.53,-1.255 -7.53,2.51 h -8.785 l -12.549,-11.295 -12.549,11.295 h -8.784 l -7.53,-3.765 z"
       fill="#ffffff"
       p-id="4896"
       id="path98" />
    <path
       d="m 744.157,381.49 v -3.765 l 3.765,3.765 z m 56.47,0 3.765,-3.765 v 3.765 z m -288.627,0 6.275,2.51 5.02,8.784 -10.04,-2.51 -8.784,2.51 z m 519.53,0 5.019,2.51 6.275,8.784 -10.04,-2.51 -10.039,2.51 z m -261.02,2.51 5.02,-1.255 c 10.039,3.765 18.823,11.294 22.588,21.333 l 11.294,-3.764 -11.294,11.294 -6.275,-1.255 -16.314,-7.53 -3.764,1.255 -15.06,8.785 h -5.019 l -11.294,-11.294 11.294,3.764 c 2.51,-10.039 10.04,-17.568 18.824,-21.333 z"
       fill="#ffffff"
       p-id="4897"
       id="path100" />
    <path
       d="m 712.784,391.53 12.55,3.764 11.293,5.02 13.804,12.549 h 2.51 l -7.53,10.039 -17.568,1.255 v -23.843 l -12.549,-3.765 -2.51,-5.02 z m 117.961,1.254 h 5.02 l -2.51,3.765 -12.55,3.765 v 25.098 -1.255 l -6.274,-1.255 -11.294,2.51 -7.53,-11.294 h 2.51 l 13.805,-12.55 5.02,-1.254 z m 180.706,12.55 c 5.02,-7.53 12.549,-11.295 20.078,-12.55 7.53,2.51 15.06,5.02 20.079,11.294 l 1.255,7.53 c -5.02,-5.02 -12.55,-8.784 -20.079,-11.294 -7.53,1.255 -15.059,5.02 -20.078,11.294 l -1.255,-6.275 z m -518.275,0 c 3.765,-6.275 11.295,-11.295 18.824,-12.55 l 8.784,1.255 13.804,11.294 v 5.02 c -5.02,-6.275 -12.549,-10.04 -20.078,-11.294 -7.53,1.255 -15.059,5.02 -20.079,11.294 l -1.255,-5.02 z"
       fill="#ffffff"
       p-id="4898"
       id="path102" />
    <path
       d="m 493.176,416.627 c 3.765,-6.274 11.295,-11.294 18.824,-12.549 l 6.275,1.255 15.058,11.294 v 6.275 h -6.274 l -12.55,-10.04 H 512 l -13.804,11.295 h -6.274 z m 519.53,-2.51 17.569,-10.039 7.529,1.255 15.059,11.294 v 6.275 h -6.275 l -12.549,-11.294 h -2.51 l -12.549,10.04 -6.274,1.254 z m -266.04,15.06 c 3.765,-12.55 16.314,-20.079 27.609,-23.844 l 15.058,7.53 12.55,16.313 13.803,-3.764 -13.804,12.549 h -12.549 l -15.058,-7.53 -13.804,7.53 h -12.55 l -13.803,-12.55 v -1.254 l 12.549,5.02 z"
       fill="#ffffff"
       p-id="4899"
       id="path104" />
    <path
       d="m 493.176,444.235 c 2.51,-12.549 10.04,-23.843 20.079,-30.117 l 5.02,2.51 c 8.784,6.274 13.803,16.313 16.313,27.607 h 1.255 l 10.04,-5.02 -11.295,16.314 v -1.254 c -3.764,-8.785 -10.039,-16.314 -18.823,-20.079 h -1.255 c -8.785,3.765 -16.314,12.55 -20.079,21.333 l -1.255,-1.254 -10.039,-15.06 8.785,3.765 z m 43.922,-30.117 1.255,2.51 3.765,6.274 12.549,-3.765 -13.804,11.294 h -5.02 l -6.274,-5.02 h 7.529 z m 474.353,30.117 c 2.51,-12.549 10.04,-23.843 21.333,-30.117 11.294,6.274 18.824,17.568 21.334,30.117 l 11.294,-6.274 -11.294,16.314 c -3.765,-8.785 -11.294,-17.57 -20.079,-22.589 -10.039,3.765 -16.314,12.55 -20.078,22.589 l -12.55,-15.06 z m -309.96,-28.862 h 5.019 l 18.823,10.039 v 2.51 l 8.785,1.254 12.549,11.295 h 3.764 l 2.51,3.764 -5.02,5.02 H 719.06 v -21.333 l -13.804,-6.275 z m 141.803,0 h 3.765 l -3.765,6.274 -13.804,6.275 v 21.333 h -28.863 l -5.02,-6.275 2.51,-2.51 5.02,-1.254 12.55,-11.294 h 6.274 v -2.51 l 21.333,-10.04 z m -356.392,7.529 3.765,-6.275 v 8.785 h 7.53 l -1.256,1.255 -5.02,3.764 h -5.019 l -13.804,-11.294 z"
       fill="#ffffff"
       p-id="4900"
       id="path106" />
    <path
       d="m 683.922,468.078 v -47.686 l 11.294,12.55 h 21.333 v 16.313 c -6.274,-3.765 -13.804,-7.53 -21.333,-10.04 h -8.785 l -2.51,5.02 6.275,5.02 15.059,3.765 v 31.372 h 43.921 l -6.274,11.294 -12.55,-3.764 -6.274,2.51 3.765,2.51 h -42.667 c -1.254,-10.04 -1.254,-18.824 -1.254,-28.864 z m 181.96,-48.94 v 76.548 h -42.666 l 2.51,-2.51 -2.51,-2.51 -15.06,3.765 -6.274,-10.039 h 43.922 V 453.02 l 15.059,-5.02 5.02,-3.765 -2.51,-6.274 h -7.53 c -7.53,2.51 -15.059,6.274 -21.333,10.039 v -16.314 h 21.333 l 10.04,-12.549 z m 139.294,8.784 3.765,-8.785 1.255,6.275 h 6.275 l -6.275,8.784 h -5.02 l -13.803,-10.04 z m 51.451,-7.53 2.51,7.53 13.804,-3.765 -13.804,10.04 h -5.02 l -6.274,-8.785 h 7.53 z m -523.294,10.04 6.275,6.274 -2.51,2.51 z m -45.176,6.274 6.274,-5.02 -3.764,7.53 z"
       fill="#ffffff"
       p-id="4901"
       id="path108" />
    <path
       d="m 744.157,463.059 c 3.765,-13.804 16.314,-25.098 30.118,-30.118 l 5.02,1.255 c 12.548,5.02 22.587,15.059 26.352,27.608 l 2.51,-1.255 13.804,-3.765 -16.314,16.314 h -13.804 l -2.51,-1.255 -12.549,-6.274 h -3.764 l -13.804,7.529 h -15.06 l -16.313,-16.314 v -1.255 z M 512,436.706 l 5.02,1.255 c 10.039,6.274 16.313,17.568 17.568,28.863 l 11.294,-6.275 -11.294,16.314 h -1.255 c -3.764,-7.53 -8.784,-16.314 -16.313,-21.334 h -3.765 c -7.53,5.02 -13.804,12.55 -17.569,21.334 l -3.764,-2.51 -10.04,-13.804 8.785,5.02 1.255,1.255 c 3.764,-12.55 10.039,-23.844 20.078,-30.118 z m 513.255,3.765 7.53,-5.02 12.548,11.294 7.53,18.824 h 1.255 l 10.039,-5.02 -11.294,16.314 h -2.51 v -1.255 l -13.804,-17.569 -5.02,-2.51 -6.274,3.765 -12.55,18.824 h -1.254 l -11.294,-16.314 11.294,6.274 v -2.51 c 3.765,-10.039 7.53,-18.823 13.804,-25.097 z"
       fill="#ffffff"
       p-id="4902"
       id="path110" />
    <path
       d="m 686.431,440.47 10.04,1.255 c 7.529,2.51 13.804,6.275 20.078,10.04 h 28.863 l -3.765,7.53 -11.294,-3.766 -6.275,2.51 18.824,18.824 h 5.02 l 3.764,5.02 H 709.02 v -30.118 l -18.824,-6.275 z m 165.647,1.255 10.04,-1.254 -5.02,5.02 -16.314,3.764 v 30.118 h -43.921 l 3.764,-5.02 h 5.02 l 18.824,-18.824 -6.275,-2.51 -11.294,3.765 -3.765,-5.02 H 832 c 6.275,-3.764 12.549,-7.529 20.078,-10.039 z m -306.196,1.255 3.765,8.785 18.824,-5.02 -11.295,10.04 -10.039,2.51 -11.294,1.254 v -2.51 z m -67.764,8.785 3.764,-7.53 10.04,13.804 v 1.255 c -8.785,-1.255 -17.57,-3.765 -25.098,-6.274 l -7.53,-5.02 z m 518.274,5.02 6.275,-11.295 7.53,11.294 v 5.02 l -7.53,-3.765 -5.02,2.51 5.02,7.53 h -6.275 l -18.823,-16.314 z m 65.255,-10.04 2.51,1.255 3.765,8.784 18.823,-5.02 -18.823,16.314 h -5.02 l 5.02,-7.529 -5.02,-2.51 -7.53,3.765 -1.254,-3.765 z m -602.353,3.765 c 6.275,5.02 12.55,6.274 20.079,8.784 v 1.255 l 12.549,17.569 2.51,1.255 -3.765,10.039 -1.255,8.784 -8.785,-1.255 -2.51,2.51 12.55,13.804 h -31.373 z"
       fill="#ffffff"
       p-id="4903"
       id="path112" />
    <path
       d="m 973.804,450.51 c 7.53,6.274 15.059,13.804 22.588,20.078 h 8.784 l 6.275,8.785 h 2.51 v 1.254 l -3.765,16.314 -7.53,-2.51 -3.764,2.51 12.549,13.804 h -37.647 v -20.078 c 0,-12.55 -1.255,-26.353 0,-40.157 z m -425.412,11.294 c 8.784,-1.255 18.824,-3.765 26.353,-10.04 v 27.609 c 0,7.529 0,15.058 -1.255,22.588 v 8.784 h -35.137 l 11.294,-12.549 v -1.255 h -11.294 l -3.765,-17.568 h 2.51 l 11.294,-17.57 z m 519.53,8.784 18.823,-16.313 c 0,10.039 0,18.823 -1.255,28.862 0,10.04 -1.255,18.824 -1.255,28.863 h -30.117 l 12.549,-13.804 h -11.294 l -3.765,-17.569 h 2.51 l 6.274,-8.784 z"
       fill="#ffffff"
       p-id="4904"
       id="path114" />
    <path
       d="m 1013.96,483.137 c 3.765,-10.039 8.785,-18.823 17.57,-25.098 8.784,5.02 13.803,13.804 17.568,23.843 l 3.765,12.55 c -5.02,-7.53 -11.294,-13.805 -20.079,-17.57 h -2.51 c -7.529,3.765 -15.058,8.785 -18.823,16.314 l 2.51,-10.039 z m -518.274,1.255 c 3.765,-10.04 8.785,-20.078 17.569,-26.353 h 1.255 c 8.784,6.275 15.059,16.314 17.568,25.098 l 2.51,11.294 c -5.02,-7.529 -11.294,-15.058 -20.078,-17.568 l -3.765,1.255 c -7.53,3.764 -13.804,8.784 -17.569,16.313 z m 273.569,-12.549 6.274,-2.51 c 8.785,2.51 17.569,8.785 22.589,16.314 l 7.53,13.804 16.313,-5.02 -16.314,16.314 h -60.235 l -17.569,-17.569 15.059,5.02 h 1.255 c 3.765,-11.294 13.804,-21.333 25.098,-26.353 z m -18.824,5.02 h 5.02 l -2.51,2.51 z"
       fill="#ffffff"
       p-id="4905"
       id="path116" />
    <path
       d="m 793.098,476.863 h 5.02 l -2.51,2.51 z m -282.353,3.764 3.765,-1.254 c 10.039,3.764 17.568,12.549 20.078,22.588 l 10.04,-5.02 -10.04,11.294 h -41.412 l -10.039,-11.294 10.04,5.02 c 2.51,-8.785 8.784,-16.314 17.568,-21.334 z m 500.706,22.589 c 2.51,-10.04 11.294,-18.824 21.333,-22.589 10.04,3.765 17.569,12.55 21.334,22.589 l 10.039,-5.02 -8.784,10.04 -3.765,2.51 h -40.157 l -11.294,-11.295 z m -576,-15.06 h 21.333 v 22.59 h -21.333 z m 140.549,0 h 105.412 v 11.295 h 2.51 l 12.549,11.294 H 574.745 c 0,-7.53 1.255,-15.059 1.255,-22.588 z m 291.137,0 H 970.04 v 22.59 H 852.08 l 12.548,-11.295 h 2.51 v -11.294 z m 222.118,22.59 c 0,-7.53 0,-15.06 1.255,-22.59 h 25.098 v 22.59 z"
       fill="#ffffff"
       p-id="4906"
       id="path118" />
    <path
       d="m 687.686,499.451 h 42.667 l 8.784,8.784 H 698.98 Z m 131.765,0 h 42.667 l -11.294,8.784 h -40.157 z m -237.176,13.804 h 120.47 v 21.333 h -120.47 z m 169.411,0 h 6.275 v 10.04 z m 8.785,0 h 27.607 v 235.921 h -27.607 z m 30.117,0 h 6.275 l -6.275,8.784 z m 10.04,0 h 6.274 v 104.157 h -3.765 v -56.47 h -12.549 v -33.883 z m 42.666,0 h 117.96 v 21.333 H 842.04 c 1.255,-7.53 1.255,-15.059 1.255,-21.333 z m 121.726,0 h 5.02 l 1.254,1.255 h 42.667 v 102.902 h -1.255 v -56.47 h -15.059 v 55.215 h -31.372 c -1.255,-33.882 -2.51,-69.02 -1.255,-102.902 z m 124.235,0 h 3.765 v 102.902 h -21.334 v -56.47 h -16.313 v 56.47 h -1.255 V 513.255 Z m -647.53,0 h 8.785 v 21.333 h -8.785 z m 10.04,102.902 V 512 h 3.764 l 1.255,1.255 h 37.647 v 102.902 h -2.51 v -56.47 h -15.058 v 56.47 c -8.785,1.255 -16.314,0 -25.098,0 z m 122.98,-102.902 h 3.765 v 104.157 h -27.608 v -56.47 h -16.314 v 56.47 h -2.51 V 514.51 h 41.412 v -1.255 z m 130.51,102.902 V 512 h 35.137 v 104.157 h -2.51 v -56.47 h -15.058 v 56.47 h -17.57 z m 37.647,0 V 512 h 5.02 l 10.039,15.059 v 32.627 h -12.55 v 56.47 h -2.509 z m 66.51,1.255 V 513.255 h 31.372 v 104.157 h -12.549 v -56.47 h -16.313 v 56.47 z m 286.117,-104.157 h 10.04 v 21.333 h -10.04 z m -598.588,1.255 h 3.765 v 121.725 h -3.765 z m 6.275,0 h 22.588 v 121.725 h -22.588 z m 513.255,0 h 3.764 v 121.725 h -3.764 z m 6.274,120.47 V 513.255 h 22.588 V 634.98 c -8.784,1.255 -15.058,1.255 -22.588,0 z m -495.686,0 V 513.255 h 3.765 V 634.98 Z m 519.53,1.255 V 514.51 h 3.764 v 121.725 h -3.765 z M 444.234,535.843 h 5.02 v 80.314 h -5.02 z m 138.04,0 h 120.47 v 80.314 h -7.53 v -56.47 h -16.313 v 56.47 h -7.53 v -56.47 H 655.06 v 56.47 h -5.02 v -56.47 h -16.314 v 56.47 h -5.02 v -56.47 h -15.058 v 56.47 h -7.53 v -56.47 H 591.06 v 56.47 h -8.784 v -80.314 z m 261.02,0 H 962.51 v 80.314 h -5.02 v -56.47 h -15.059 v 56.47 h -7.529 v -56.47 h -15.059 v 56.47 h -5.02 v -56.47 h -15.058 v 56.47 h -8.785 v -56.471 h -16.313 v 56.47 h -7.53 v -56.47 h -16.313 v 56.47 h -8.785 c 1.255,-26.352 1.255,-52.705 1.255,-80.313 z m 252.234,0 h 6.275 v 80.314 h -6.275 z"
       fill="#ffffff"
       p-id="4907"
       id="path120" />
    <path
       d="m 479.373,563.451 h 10.039 v 53.96 h -10.04 v -53.96 z m 58.98,0 h 10.04 v 53.96 h -10.04 z m 79.059,0 h 10.039 v 53.96 h -10.04 v -53.96 z m 20.078,0 h 10.04 v 53.96 h -10.04 z m 21.334,52.706 v -53.96 h 10.039 v 53.96 h -10.04 z m 23.843,-52.706 h 10.039 v 53.96 h -10.04 v -53.96 z m 41.411,0 h 10.04 v 53.96 h -10.04 z m 23.844,0 h 10.039 v 53.96 h -10.04 v -53.96 z m 42.666,0 h 10.04 v 53.96 h -10.04 z m 25.098,0 h 10.04 v 53.96 h -10.04 z m 38.902,0 h 10.04 v 53.96 h -10.04 z m 22.588,0 h 10.04 v 53.96 h -10.04 z m 21.334,0 h 10.039 v 53.96 h -10.04 v -53.96 z m 45.176,0 h 10.04 v 53.96 h -10.04 z m 55.216,0 h 10.04 v 53.96 h -10.04 z m 58.98,0 h 10.04 v 53.96 h -10.04 z M 593.57,616.157 v -53.96 h 10.039 v 53.96 h -10.04 z m 326.274,-52.706 h 10.04 v 53.96 h -10.04 z m -435.45,56.47 h 6.274 l -2.51,15.06 h -8.784 z m 51.45,0 h 6.275 l 5.02,15.06 h -7.53 z m -91.608,0 h 5.02 l -7.53,15.06 h -5.02 z m 0,15.06 8.785,-16.314 h 28.862 l -5.02,16.313 c -10.038,0 -21.333,1.255 -32.627,0 z m 48.941,-11.295 1.255,-5.02 v 16.314 l -3.764,1.255 z m 52.706,-3.764 h 35.138 l 8.784,16.313 h -38.902 z m 37.647,0 h 119.216 l -8.784,16.313 H 591.059 l -7.53,-16.313 z m 114.196,15.058 8.785,-16.313 h 31.372 l -5.02,16.313 c -11.293,0 -23.842,1.255 -35.137,0 z m 38.902,-3.764 3.765,-11.294 h 10.04 l -2.51,15.058 h -12.55 z m 16.314,-11.294 h 5.02 v 16.313 l -7.53,-1.255 z m 37.647,16.313 v -16.313 h 3.765 l 2.51,15.058 z m 6.275,-16.313 h 10.039 l 3.765,15.058 h -11.294 z m 12.549,0 h 31.372 l 8.785,16.313 h -35.14 l -5.02,-16.313 z m 33.882,0 h 117.96 l -7.529,15.058 H 852.078 l -8.784,-15.058 z m 121.726,0 h 33.882 v 1.254 l -3.765,15.06 h -38.902 z m 37.647,0 h 7.53 l -2.51,16.313 -8.785,-1.255 z m 8.784,16.313 2.51,-17.568 v 17.568 z m 45.176,-16.313 h 8.785 l 3.764,15.058 h -10.039 z m 11.295,0 h 23.843 l 8.784,16.313 h -28.863 z m 27.607,0 h 7.53 l 6.274,15.058 h -5.02 z m -42.666,16.313 v -16.313 l 3.764,15.058 z m -519.53,-16.313 2.51,15.058 h -2.51 z m 481.883,18.823 h 3.764 v 110.431 h -3.764 v -110.43 z m 31.372,0 3.765,1.255 v 109.176 h -3.765 v -110.43 z m -631.215,0 h 79.058 v 3.765 h -79.058 z m 81.568,109.177 V 637.49 h 3.765 v 110.432 z m 6.275,0 V 637.49 h 21.333 v 110.432 c -7.53,1.254 -13.804,1.254 -21.333,0 z M 527.06,638.745 h 3.765 v 110.431 h -3.765 v -110.43 z m 6.274,0 h 224.628 v 3.765 H 533.333 v -3.765 z m 257.255,3.765 v -3.765 h 222.118 v 3.765 H 790.588 Z m 230.902,-3.765 h 22.588 v 110.431 h -21.333 c -1.255,-37.647 -1.255,-74.039 -1.255,-110.43 z m 31.373,3.765 v -3.765 h 76.549 v 3.765 h -76.55 z m -262.275,2.51 h 222.118 v 15.058 H 790.588 V 645.02 Z m -386.51,0 h 90.353 v 15.058 h -90.353 z m 129.255,0 h 224.628 v 15.058 H 534.588 l -1.255,-15.058 z m 519.53,0 h 87.843 v 15.058 h -86.588 z M 385.256,663.843 H 494.43 v 20.079 H 385.255 v -20.079 z m 148.078,0 h 224.628 v 20.079 H 533.333 v -20.079 z m 257.255,0 h 222.118 v 20.079 H 790.588 v -20.079 z m 262.275,20.079 v -20.079 h 109.176 v 20.079 z m -695.216,2.51 h 136.784 v 30.117 H 357.647 v -30.118 z m 175.686,0 h 224.628 v 30.117 H 533.333 v -30.118 z m 257.255,0 h 222.118 v 30.117 H 790.588 v -30.118 z m 262.275,0 h 136.784 v 30.117 H 1052.864 V 686.431 Z M 330.04,719.059 h 164.392 v 28.863 H 330.04 Z m 203.294,0 h 224.628 v 28.863 H 533.333 v -28.863 z m 257.255,0 h 222.118 v 28.863 H 790.588 v -28.863 z m 262.275,0 h 164.392 v 28.863 h -164.392 z"
       fill="#ffffff"
       p-id="4908"
       id="path122" />
  </g>
</svg>
